# xmcd
#
# Track frame offsets:
#	150
#	16358
#	28146
#	42088
#	57054
#	77417
#	93344
#	111106
#	125858
#	143630
#	160509
#	172224
#
# Disc length: 2489 seconds
#
# Revision: 1
# Processed by: cddbd v1.5.2PL0 Copyright (c) Steve Scherf et al.
# Submitted via: audiograbber 1.83.01
#
DISCID=9409b70c
DTITLE=Lisa Daggs - God Delivers
DYEAR=2002
DGENRE=Country
TTITLE0=O, My Glory, Glory, Glory
TTITLE1=Searchin'
TTITLE2=He Looked Beyond My Fault
TTITLE3=God Delivers
TTITLE4=You Are My Ministry
TTITLE5=He Ain't Ever Done Me Nothin' (But Good)
TTITLE6=David Did Dance
TTITLE7=Rock Beneath Your Feet
TTITLE8=His Eye Is On The Sparrow
TTITLE9=Even When You're Not Here
TTITLE10=The Enemy's Goin' Down
TTITLE11=He Touched Me
EXTD=
EXTT0=
EXTT1=
EXTT2=
EXTT3=
EXTT4=
EXTT5=
EXTT6=
EXTT7=
EXTT8=
EXTT9=
EXTT10=
EXTT11=
PLAYORDER=
